<?xml version="1.0" encoding="UTF-8" standalone="no"?>
<!-- Created with Inkscape (http://www.inkscape.org/) -->

<svg
   width="32"
   height="32"
   viewBox="0 0 32 32"
   version="1.1"
   id="svg1"
   inkscape:version="1.4.3 (0d15f75042, 2025-12-25)"
   sodipodi:docname="gmu-better-reg.svg"
   xmlns:inkscape="http://www.inkscape.org/namespaces/inkscape"
   xmlns:sodipodi="http://sodipodi.sourceforge.net/DTD/sodipodi-0.dtd"
   xmlns="http://www.w3.org/2000/svg"
   xmlns:svg="http://www.w3.org/2000/svg">
  <sodipodi:namedview
     id="namedview1"
     pagecolor="#505050"
     bordercolor="#eeeeee"
     borderopacity="1"
     inkscape:showpageshadow="0"
     inkscape:pageopacity="0"
     inkscape:pagecheckerboard="0"
     inkscape:deskcolor="#505050"
     inkscape:document-units="px"
     showgrid="true"
     inkscape:zoom="6.1875"
     inkscape:cx="27.313131"
     inkscape:cy="15.515151"
     inkscape:window-width="1920"
     inkscape:window-height="1040"
     inkscape:window-x="0"
     inkscape:window-y="0"
     inkscape:window-maximized="1"
     inkscape:current-layer="layer2">
    <inkscape:grid
       id="grid1"
       units="px"
       originx="0"
       originy="0"
       spacingx="1"
       spacingy="1"
       empcolor="#0099e5"
       empopacity="0.30196078"
       color="#0099e5"
       opacity="0.14901961"
       empspacing="8"
       enabled="true"
       visible="true" />
  </sodipodi:namedview>
  <defs
     id="defs1" />
  <g
     inkscape:label="Layer 1"
     inkscape:groupmode="layer"
     id="layer1"
     style="display:inline">
    <rect
       style="fill:#005138;fill-opacity:1;stroke-width:0.342858;stroke-opacity:0.575857"
       id="rect1"
       width="32"
       height="32"
       x="3.9968029e-15"
       y="3.9968029e-15" />
  </g>
  <g
     inkscape:groupmode="layer"
     id="layer2"
     inkscape:label="Layer 2">
    <path
       style="fill:#fec532;fill-opacity:1;stroke-width:0.3;stroke-opacity:0.575857"
       d="M 6,12 V 10 H 2 v 6 H 6 V 13 H 4 v 1 h 1 v 1 H 3 v -4 h 2 v 1 z"
       id="path6" />
    <path
       style="fill:#fec532;fill-opacity:1;stroke-width:0.3;stroke-opacity:0.575857"
       d="m 16,26 v -2 h -4 v 6 h 4 v -3 h -2 v 1 h 1 v 1 h -2 v -4 h 2 v 1 z"
       id="path6-4" />
    <path
       style="fill:#fec532;fill-opacity:1;stroke-width:0.3;stroke-opacity:0.575857"
       d="m 7,10 v 6 h 1 v -4 h 1 v 1 1 h 1 v -2 h 1 v 4 h 1 v -6 h -2 v 1 H 9 v -1 z"
       id="path7" />
    <path
       style="fill:#fec532;fill-opacity:1;stroke-width:0.3;stroke-opacity:0.575857"
       d="m 13,10 v 6 h 4 v -6 h -1 v 5 h -2 v -5 z"
       id="path8" />
    <path
       style="fill:#fec532;fill-opacity:1;stroke-width:0.3;stroke-opacity:0.575857"
       d="m 2,17 v 6 H 6 V 20 H 5 v -3 z"
       id="path10" />
    <path
       style="fill:#005138;fill-opacity:1;stroke-width:0.3;stroke-opacity:0.575857"
       d="m 3,18 h 1 v 2 H 3 Z"
       id="path11"
       sodipodi:nodetypes="ccccc" />
    <path
       style="fill:#005138;fill-opacity:1;stroke-width:0.3;stroke-opacity:0.575857"
       d="m 3,21 h 2 v 1 H 3 Z"
       id="path12"
       sodipodi:nodetypes="ccccc" />
    <path
       style="fill:#fec532;fill-opacity:1;stroke-width:0.3;stroke-opacity:0.575857"
       d="m 26,17 v 6 h 1 v -3 h 1 v 1 h 1 v 2 h 1 v -2 h -1 v -1 h 1 v -3 z"
       id="path10-3"
       sodipodi:nodetypes="ccccccccccccccc" />
    <path
       style="fill:#005138;fill-opacity:1;stroke-width:0.3;stroke-opacity:0.575857"
       d="m 27,18 h 2 v 1 h -2 z"
       id="path11-0"
       sodipodi:nodetypes="ccccc" />
    <path
       style="fill:#fec532;fill-opacity:1;stroke-width:0.3;stroke-opacity:0.575857"
       d="m 2,24 v 6 h 1 v -3 h 1 v 1 h 1 v 2 H 6 V 28 H 5 v -1 h 1 v -3 z"
       id="path10-3-5"
       sodipodi:nodetypes="ccccccccccccccc" />
    <path
       style="fill:#005138;fill-opacity:1;stroke-width:0.3;stroke-opacity:0.575857"
       d="m 3,25 h 2 v 1 H 3 Z"
       id="path11-0-9"
       sodipodi:nodetypes="ccccc" />
    <path
       style="fill:#fec532;fill-opacity:1;stroke-width:0.3;stroke-opacity:0.575857"
       d="m 7,17 v 6 h 4 V 22 H 8 v -2 h 2 V 19 H 8 v -1 h 3 v -1 z"
       id="path13" />
    <path
       style="fill:#fec532;fill-opacity:1;stroke-width:0.3;stroke-opacity:0.575857"
       d="m 7,24 v 6 h 4 V 29 H 8 v -2 h 2 V 26 H 8 v -1 h 3 v -1 z"
       id="path13-2" />
    <path
       style="fill:#fec532;fill-opacity:1;stroke-width:0.3;stroke-opacity:0.575857"
       d="m 21,17 v 6 h 4 v -1 h -3 c 0,-0.666667 0,-1.333333 0,-2 h 2 v -1 h -2 v -1 h 3 v -1 z"
       id="path13-7"
       sodipodi:nodetypes="ccccccccccccc" />
    <path
       style="fill:#fec532;fill-opacity:1;stroke-width:0.3;stroke-opacity:0.575857"
       d="m 12,17 v 1 h 1 v 5 h 1 v -5 h 2 v -1 z"
       id="path14" />
    <path
       style="fill:#fec532;fill-opacity:1;stroke-width:0.3;stroke-opacity:0.575857"
       d="m 17,17 v 1 h 1 v 5 h 1 v -5 h 1 v -1 z"
       id="path14-8"
       sodipodi:nodetypes="ccccccccc" />
  </g>
</svg>
